<svg id="Group_3200" data-name="Group 3200" xmlns="http://www.w3.org/2000/svg" width="32" height="32" viewBox="0 0 32 32">
  <g id="Group_3199" data-name="Group 3199">
    <g id="Group_3196" data-name="Group 3196">
      <path id="Path_8635" data-name="Path 8635" d="M0,0H32V32H0Z" fill="none" fill-rule="evenodd"/>
    </g>
    <g id="Group_3197" data-name="Group 3197">
      <path id="Path_8636" data-name="Path 8636" d="M0,0H20V20H0Z" transform="translate(6 6)" fill="none" fill-rule="evenodd"/>
      <path id="Path_8637" data-name="Path 8637" d="M0,0H20V20H0Z" transform="translate(6 6)" fill="none" fill-rule="evenodd"/>
    </g>
    <g id="Group_3198" data-name="Group 3198" transform="translate(8.455 8.455)">
      <path id="Path_8638" data-name="Path 8638" d="M3.565,13.753l-2.609.765a.393.393,0,0,1-.433-.433l.766-2.609a.833.833,0,0,1,.239-.5L11.46,1.045a1.793,1.793,0,0,1,2.535,0h0A1.794,1.794,0,0,1,14,3.58L4.062,13.513a.833.833,0,0,1-.5.239h0Z" fill="none" stroke="#2e68ae" stroke-linejoin="round" stroke-width="1" fill-rule="evenodd"/>
      <circle id="Ellipse_576" data-name="Ellipse 576" cx="0.846" cy="0.846" r="0.846" transform="translate(11.597 1.752)" fill="#1268b3"/>
    </g>
  </g>
</svg>
