<svg id="Component_5" data-name="Component 5" xmlns="http://www.w3.org/2000/svg" width="26" height="26" viewBox="0 0 26 26">
  <path id="Path_9824" data-name="Path 9824" d="M2,0H24a2,2,0,0,1,2,2V24a2,2,0,0,1-2,2H2a2,2,0,0,1-2-2V2A2,2,0,0,1,2,0Z" fill="#e53935"/>
  <path id="trash-solid" d="M13.5,1H9.75L9.456.415A.75.75,0,0,0,8.784,0H5.212a.741.741,0,0,0-.669.416L4.25,1H.5a.5.5,0,0,0-.5.5v1A.5.5,0,0,0,.5,3h13a.5.5,0,0,0,.5-.5v-1A.5.5,0,0,0,13.5,1ZM1.662,14.594A1.5,1.5,0,0,0,3.159,16h7.681a1.5,1.5,0,0,0,1.5-1.406L13,4H1Z" transform="translate(6 5)" fill="#fff"/>
</svg>
