<svg xmlns="http://www.w3.org/2000/svg" width="225.63" height="32" viewBox="0 0 225.63 32">
  <g id="Layer_2" data-name="Layer 2" transform="translate(0 0.009)">
    <g id="Layer_1" data-name="Layer 1" transform="translate(0 -0.009)">
      <g id="Group_10727" data-name="Group 10727">
        <g id="Group_10725" data-name="Group 10725" transform="translate(72.826 1.869)">
          <path id="Path_9832" data-name="Path 9832" d="M176.4,34.631V4.5h12.1a11.154,11.154,0,0,1,7.128,2.069,7.072,7.072,0,0,1,2.611,5.794,6.865,6.865,0,0,1-1.451,4.429,7.461,7.461,0,0,1-3.9,2.566v-.331a7.08,7.08,0,0,1,6.051,7.367,7.508,7.508,0,0,1-2.611,6.126c-1.741,1.449-4.227,2.111-7.419,2.111Zm3.4-16.763h8.165A8.183,8.183,0,0,0,193.1,16.5a4.669,4.669,0,0,0,1.7-3.973,4.485,4.485,0,0,0-1.7-3.849A8.4,8.4,0,0,0,187.963,7.4H179.8Zm0,13.865h8.828c2.362,0,4.1-.414,5.222-1.324a4.906,4.906,0,0,0,1.658-4.1,4.948,4.948,0,0,0-1.7-4.139c-1.16-.952-2.86-1.366-5.181-1.366H179.8Z" transform="translate(-176.4 -4.5)" fill="#1961ac"/>
          <path id="Path_9833" data-name="Path 9833" d="M245.9,34.631V4.5h19.064V7.4H249.34V17.869h14.754v2.939H249.34V31.734h15.624v2.9Z" transform="translate(-217.096 -4.5)" fill="#1961ac"/>
          <path id="Path_9834" data-name="Path 9834" d="M307.485,34.631V7.48H297V4.5h24.494V7.48H311.008V34.631Z" transform="translate(-247.018 -4.5)" fill="#1961ac"/>
          <path id="Path_9835" data-name="Path 9835" d="M369.085,34.631V7.48H358.6V4.5h24.493V7.48H372.608V34.631Z" transform="translate(-283.089 -4.5)" fill="#1961ac"/>
          <path id="Path_9836" data-name="Path 9836" d="M427.9,34.631V4.5h19.064V7.4H431.34V17.869h14.8v2.939h-14.8V31.734h15.624v2.9Z" transform="translate(-323.668 -4.5)" fill="#1961ac"/>
          <path id="Path_9837" data-name="Path 9837" d="M488,34.631V4.5h11.977c3.233,0,5.719.745,7.46,2.152a7.6,7.6,0,0,1,2.611,6.25,7.28,7.28,0,0,1-2.652,6.084c-1.782,1.49-4.227,2.235-7.419,2.235l3.15-.621a4.687,4.687,0,0,1,2.818.911,6.456,6.456,0,0,1,1.906,2.9l3.813,10.223h-3.689l-3.73-10.016A4.212,4.212,0,0,0,502.3,22.09a7.593,7.593,0,0,0-3.357-.621h-7.5V34.631Zm3.44-16.059h8.247a8.1,8.1,0,0,0,5.222-1.407,5.119,5.119,0,0,0,1.7-4.222,4.981,4.981,0,0,0-1.7-4.18A8.287,8.287,0,0,0,499.687,7.4H491.44Z" transform="translate(-358.86 -4.5)" fill="#1961ac"/>
        </g>
        <g id="Group_10726" data-name="Group 10726">
          <path id="Path_9838" data-name="Path 9838" d="M0,22.21V.7H14.505V4.43H4.642V9.4h9.283v3.73H4.642V22.21Z" transform="translate(0 -0.406)" fill="#1961ac"/>
          <path id="Path_9839" data-name="Path 9839" d="M50.72,22.085a10.983,10.983,0,0,1-5.595-1.368,9.366,9.366,0,0,1-3.647-3.854,12.392,12.392,0,0,1-1.285-5.844,12.392,12.392,0,0,1,1.285-5.844,9.366,9.366,0,0,1,3.647-3.854A11.4,11.4,0,0,1,50.72-.005a11.107,11.107,0,0,1,5.554,1.326,9.366,9.366,0,0,1,3.647,3.854,12.931,12.931,0,0,1,1.243,5.844,12.931,12.931,0,0,1-1.243,5.844,9.366,9.366,0,0,1-3.647,3.854A10.734,10.734,0,0,1,50.72,22.085Zm0-3.689a5.222,5.222,0,0,0,4.227-1.865,8.562,8.562,0,0,0,1.533-5.512,8.485,8.485,0,0,0-1.533-5.512,5.723,5.723,0,0,0-8.455,0,8.408,8.408,0,0,0-1.533,5.512,8.408,8.408,0,0,0,1.533,5.512A5.222,5.222,0,0,0,50.72,18.4Z" transform="translate(-23.533 0.009)" fill="#1961ac"/>
          <path id="Path_9840" data-name="Path 9840" d="M99.7,22.21V.7h9.615a8.668,8.668,0,0,1,5.678,1.616A5.8,5.8,0,0,1,116.941,7a5.8,5.8,0,0,1-1.989,4.6A8.182,8.182,0,0,1,109.4,13.34l2.487-.5a3.108,3.108,0,0,1,1.989.663,4.435,4.435,0,0,1,1.409,2.031l2.611,6.673h-5.015l-2.735-7.17a1.948,1.948,0,0,0-1.078-1.2,4.1,4.1,0,0,0-1.658-.29h-3.025V22.21Zm4.642-12.267h4.269a5.039,5.039,0,0,0,2.943-.7,2.445,2.445,0,0,0,.953-2.114,2.487,2.487,0,0,0-.912-2.114,5.1,5.1,0,0,0-2.984-.7h-4.269Z" transform="translate(-58.38 -0.406)" fill="#1961ac"/>
        </g>
        <rect id="Rectangle_3458" data-name="Rectangle 3458" width="59.39" height="3.258" transform="translate(0.041 28.726)" fill="#1961ac"/>
      </g>
    </g>
  </g>
</svg>
