<svg id="icon_edit" data-name="icon/edit" xmlns="http://www.w3.org/2000/svg" xmlns:xlink="http://www.w3.org/1999/xlink" width="22" height="22" viewBox="0 0 22 22">
  <defs>
    <clipPath id="clip-path">
      <rect id="Rectangle_41" data-name="Rectangle 41" width="13" height="13" fill="#fff"/>
    </clipPath>
  </defs>
  <rect id="Rectangle_3239" data-name="Rectangle 3239" width="22" height="22" rx="4" fill="#00aeef"/>
  <g id="edit" transform="translate(4.846 4.846)">
    <g id="edit-2" data-name="edit" clip-path="url(#clip-path)">
      <path id="Path_89" data-name="Path 89" d="M8.528,2.684,1.375,9.837a.285.285,0,0,0-.074.131L.508,13.15a.282.282,0,0,0,.273.35.278.278,0,0,0,.068-.009L4.032,12.7a.281.281,0,0,0,.131-.074l7.153-7.153Z" transform="translate(-0.5 -0.5)" fill="#fff"/>
      <path id="Path_90" data-name="Path 90" d="M13.088,1.709l-.8-.8a1.442,1.442,0,0,0-1.991,0l-.975.975,2.787,2.787.975-.975a1.408,1.408,0,0,0,0-1.991Z" transform="translate(-0.5 -0.5)" fill="#fff"/>
    </g>
  </g>
</svg>
