<svg xmlns="http://www.w3.org/2000/svg" width="16.354" height="11.054" viewBox="0 0 16.354 11.054">
  <path id="Path_9648" data-name="Path 9648" d="M237.883,185.388h-.34l-13.042,0c-.1,0-.19,0-.285,0-.144,0-.2.066-.2.205,0,.285.006.571,0,.856,0,.173.076.223.236.222.5,0,1,0,1.5,0l11.8,0h.311c-.016.145-.117.2-.186.264q-1.755,1.747-3.513,3.49c-.275.273-.273.273.006.557.151.154.306.305.448.468.124.143.227.149.361.01.325-.335.658-.662.99-.99q2.128-2.107,4.26-4.21c.171-.168.2-.268.011-.452q-2.626-2.581-5.232-5.181c-.164-.164-.272-.162-.418.006a6.216,6.216,0,0,1-.476.477c-.18.165-.2.288,0,.48,1.187,1.159,2.36,2.334,3.536,3.5A.747.747,0,0,1,237.883,185.388Z" transform="translate(-224.016 -180.505)" fill="#1268b3"/>
</svg>
