<?xml version="1.0" encoding="UTF-8"?>
<svg width="700pt" fill="#4bade9" height="700pt" version="1.1" viewBox="0 0 700 700" xmlns="http://www.w3.org/2000/svg" xmlns:xlink="http://www.w3.org/1999/xlink">
 <g>
  <path d="m601.11 217.73h-52.363c-5.2852-0.0625-10.336-2.2109-14.047-5.9805-3.707-3.7695-5.7812-8.8477-5.7617-14.137 0.019531-5.2891 2.1289-10.355 5.8672-14.098l37.07-37.07c5.3906-5.418 8.4141-12.746 8.4141-20.387 0-7.6367-3.0234-14.969-8.4141-20.383l-47.266-47.266h0.003906c-5.4844-5.2539-12.789-8.1914-20.387-8.1914-7.5938 0-14.898 2.9375-20.383 8.1914l-37.352 36.793c-3.7656 3.7617-8.8672 5.8711-14.188 5.8633-5.3203-0.003906-10.422-2.125-14.18-5.8906-3.7539-3.7695-5.8594-8.875-5.8477-14.195v-52.082c0-7.625-3.0156-14.941-8.3867-20.352-5.3711-5.4141-12.66-8.4844-20.285-8.543h-67.203c-7.6641 0-15.012 3.043-20.43 8.4648-5.4219 5.418-8.4648 12.766-8.4648 20.43v52.363c-0.11719 5.2227-2.2734 10.199-6.0078 13.859-3.7305 3.6602-8.7461 5.7148-13.973 5.7305-5.2305 0.015625-10.258-2.0117-14.012-5.6484l-37.07-37.07c-5.4844-5.2578-12.789-8.1914-20.387-8.1914-7.5938 0-14.898 2.9336-20.383 8.1914l-47.266 47.266v-0.003906c-5.3867 5.418-8.4141 12.746-8.4141 20.387 0 7.6367 3.0273 14.969 8.4141 20.383l36.793 37.352c3.7617 3.7656 5.8711 8.8672 5.8633 14.188-0.003906 5.3203-2.125 10.422-5.8906 14.18-3.7695 3.7539-8.875 5.8594-14.195 5.8477h-52.082c-7.625 0-14.941 3.0156-20.352 8.3867-5.4141 5.3711-8.4844 12.66-8.543 20.285v67.203c0 7.6641 3.043 15.012 8.4648 20.43 5.418 5.4219 12.766 8.4648 20.43 8.4648h52.363c3.9883-0.074219 7.9062 1.0703 11.23 3.2812 3.3203 2.2109 5.8906 5.3828 7.3594 9.0938 1.5391 3.6445 1.918 7.6758 1.0859 11.543-0.83203 3.8672-2.832 7.3828-5.7344 10.074l-37.07 37.07c-5.3906 5.418-8.4141 12.746-8.4141 20.387 0 7.6367 3.0234 14.969 8.4141 20.383l47.266 47.266h-0.003906c5.4844 5.2539 12.789 8.1914 20.387 8.1914 7.5938 0 14.898-2.9375 20.383-8.1914l37.352-36.793c3.7656-3.7617 8.8672-5.8711 14.188-5.8633 5.3203 0.003906 10.422 2.125 14.18 5.8906 3.7539 3.7695 5.8594 8.875 5.8477 14.195v52.359c0.074219 7.5781 3.1211 14.82 8.4844 20.176 5.3633 5.3516 12.613 8.3828 20.188 8.4414h67.203c7.6641 0 15.012-3.043 20.43-8.4648 5.4219-5.418 8.4648-12.766 8.4648-20.43v-52.363c-0.074219-3.9883 1.0703-7.9062 3.2812-11.23 2.2109-3.3203 5.3828-5.8906 9.0938-7.3594 3.6523-1.6367 7.7227-2.0938 11.645-1.3125 3.9258 0.78516 7.5078 2.7695 10.254 5.6797l37.07 37.07v0.003906c5.4844 5.2539 12.789 8.1914 20.383 8.1914 7.5977 0 14.902-2.9375 20.387-8.1914l47.266-47.266h-0.003906c5.3906-5.4141 8.4141-12.746 8.4141-20.383 0-7.6406-3.0234-14.969-8.4141-20.387l-37.07-37.07c-3.7617-3.7656-5.8711-8.8672-5.8633-14.188 0.003906-5.3203 2.125-10.422 5.8906-14.18 3.7695-3.7539 8.875-5.8594 14.195-5.8477h52.359c7.5781-0.074219 14.82-3.1211 20.176-8.4844 5.3516-5.3633 8.3828-12.613 8.4414-20.188v-67.203c-0.042969-7.6289-3.1094-14.93-8.5273-20.301-5.4141-5.375-12.738-8.3828-20.367-8.3711zm8.1211 95.594h-0.003906c0.015625 2.1562-0.83594 4.2305-2.3594 5.7578-1.5273 1.5273-3.6016 2.375-5.7578 2.3633h-52.363c-10.836 0.003906-21.227 4.3125-28.891 11.977-7.6602 7.668-11.965 18.062-11.965 28.898-0.003907 10.84 4.3008 21.234 11.961 28.898l37.352 37.016c3.168 3.1719 3.168 8.3125 0 11.48l-47.266 47.152h0.003906c-3.1719 3.168-8.3125 3.168-11.48 0l-37.07-37.07h-0.003907c-7.6641-7.6602-18.059-11.965-28.898-11.965-10.836 0-21.23 4.3047-28.898 11.969-7.6641 7.6602-11.973 18.055-11.977 28.891v52.359c0.011719 2.1602-0.83594 4.2344-2.3633 5.7578-1.5273 1.5273-3.6016 2.3789-5.7578 2.3633h-67.09c-2.1562 0.015625-4.2305-0.83594-5.7578-2.3633-1.5234-1.5234-2.375-3.5977-2.3594-5.7578v-52.414c0.097656-8.1094-2.2617-16.055-6.7695-22.793-4.5078-6.7383-10.957-11.953-18.488-14.953-7.4531-3.1406-15.68-3.9766-23.617-2.3984-7.9336 1.5742-15.215 5.4922-20.902 11.246l-37.07 37.07v0.003906c-3.1719 3.168-8.3125 3.168-11.48 0l-46.816-47.207c-3.168-3.1719-3.168-8.3125 0-11.48l37.07-37.07v-0.003906c7.6836-7.6445 12.004-18.035 12.012-28.875 0.003906-10.84-4.3086-21.234-11.984-28.891-7.6758-7.6523-18.082-11.934-28.922-11.898h-52.359c-2.1602 0.015626-4.2344-0.83594-5.7578-2.3594-1.5273-1.5273-2.3789-3.6016-2.3633-5.7578v-66.867c-0.015625-2.1562 0.83594-4.2305 2.3633-5.7578 1.5234-1.5234 3.5977-2.375 5.7578-2.3594h52.359c10.836-0.007812 21.23-4.3164 28.891-11.98 7.6641-7.6641 11.969-18.059 11.969-28.898 0-10.836-4.3047-21.23-11.965-28.898l-37.07-37.07c-3.168-3.1719-3.168-8.3125 0-11.48l47.262-47.152c3.1719-3.168 8.3125-3.168 11.48 0l37.07 37.07h0.003906c7.6641 7.6602 18.059 11.965 28.898 11.965 10.836 0 21.23-4.3047 28.898-11.969 7.6641-7.6602 11.973-18.055 11.977-28.891v-52.305c-0.011718-2.1562 0.83594-4.2305 2.3633-5.7578 1.5273-1.5273 3.6016-2.3789 5.7578-2.3633h66.754c2.1562-0.015625 4.2305 0.83594 5.7578 2.3633 1.5234 1.5273 2.375 3.6016 2.3594 5.7578v52.359c0.007812 10.84 4.3164 21.23 11.98 28.895 7.6641 7.6602 18.059 11.965 28.898 11.965 10.836 0 21.23-4.3008 28.898-11.961l37.07-37.129c3.1719-3.168 8.3125-3.168 11.48 0l47.152 47.262c3.168 3.1719 3.168 8.3125 0 11.48l-37.07 37.07v0.003907c-7.6602 7.6641-11.965 18.059-11.965 28.898 0 10.836 4.3047 21.23 11.969 28.898 7.6602 7.6641 18.055 11.973 28.891 11.977h52.418c2.1367-0.011719 4.1953 0.82031 5.7188 2.3242 1.5195 1.5 2.3867 3.5469 2.3984 5.6836v66.922h-0.33594z"/>
  <path d="m350 186.65c-24.738 0.015624-48.457 9.8516-65.941 27.352s-27.305 41.227-27.297 65.961c0.003906 24.738 9.832 48.461 27.324 65.953 17.492 17.492 41.215 27.32 65.953 27.324 24.734 0.007813 48.461-9.8125 65.961-27.297s27.336-41.203 27.352-65.941c0-24.758-9.8359-48.504-27.34-66.012-17.508-17.504-41.254-27.34-66.012-27.34zm0 166.15c-19.309 0-37.824-7.6719-51.477-21.324-13.652-13.652-21.324-32.168-21.324-51.477s7.6719-37.824 21.324-51.477c13.652-13.652 32.168-21.324 51.477-21.324s37.824 7.6719 51.477 21.324c13.652 13.652 21.324 32.168 21.324 51.477s-7.6719 37.824-21.324 51.477c-13.652 13.652-32.168 21.324-51.477 21.324z"/>
 </g>
</svg>
