<svg xmlns="http://www.w3.org/2000/svg" width="30.054" height="32.664" viewBox="0 0 30.054 32.664">
  <g id="Layer_111" data-name="Layer 111" transform="translate(-3.72 -2.955)">
    <path id="Path_1" data-name="Path 1" d="M28.708,22.843V7.234a4.279,4.279,0,0,0-4.279-4.279H8A4.279,4.279,0,0,0,3.72,7.234V27.293A4.279,4.279,0,0,0,8,31.572H21.314a6.464,6.464,0,1,0,7.394-8.729ZM10.138,9.116H22.29a.869.869,0,0,1,.856.856.856.856,0,0,1-.856.856H10.138a.856.856,0,0,1-.856-.856.869.869,0,0,1,.856-.856Zm0,4.861H22.29a.856.856,0,1,1,0,1.712H10.138a.856.856,0,1,1,0-1.712Zm0,4.861H22.29a.856.856,0,0,1,.856.856.869.869,0,0,1-.856.856H10.138a.869.869,0,0,1-.856-.856.856.856,0,0,1,.856-.856ZM19.5,25.41H10.138a.856.856,0,1,1,0-1.712H19.5a.856.856,0,1,1,0,1.712Zm7.8,8.506a4.767,4.767,0,1,1,4.758-4.775A4.767,4.767,0,0,1,27.3,33.916Zm.856-7.334V29.15a.856.856,0,0,1-.543.8l-1.571.614a.839.839,0,0,1-.313.058.856.856,0,0,1-.311-1.653l1.027-.4V26.582a.856.856,0,1,1,1.712,0Z" transform="translate(0 0)" fill="#1268b3"/>
  </g>
</svg>
