<svg xmlns="http://www.w3.org/2000/svg" width="418.67" height="22.549" viewBox="0 0 418.67 22.549">
  <g id="Layer_2" data-name="Layer 2" transform="translate(0 0.016)">
    <g id="Layer_1" data-name="Layer 1" transform="translate(0 -0.016)">
      <g id="Group_10729" data-name="Group 10729">
        <path id="Path_9841" data-name="Path 9841" d="M21.166,6.678V.2H0V6.678H6.2V22.37h8.758V6.678ZM32.114,9.232,27.735,22.37H18.977L27.37.2h9.4L45.16,22.37H36.4ZM64.137,6.678V.2H42.971V6.678h6.2V22.37h8.758V6.678ZM75.085,9.232,70.706,22.37H61.947L70.341.2h9.488l8.393,22.17H79.464Z" transform="translate(0 -0.003)" fill="#1268b3"/>
        <g id="Group_10728" data-name="Group 10728" transform="translate(95.339)">
          <path id="Path_9842" data-name="Path 9842" d="M121.287,21.53a14.506,14.506,0,0,1-5.656.912c-6.842,0-11.13-4.288-11.13-10.948A11.269,11.269,0,0,1,116.178,0a11.769,11.769,0,0,1,5.292,1l-.821,3.1a10.857,10.857,0,0,0-4.288-.821c-4.47,0-7.664,2.828-7.664,8.029s2.828,7.846,7.572,7.846a10.127,10.127,0,0,0,4.379-.821Z" transform="translate(-104.5 0.016)" fill="#1268b3"/>
          <path id="Path_9843" data-name="Path 9843" d="M144.936,11.039c0,7.3-4.47,11.5-10.4,11.5S124.5,17.79,124.5,11.4,128.7,0,134.809,0,144.936,4.835,144.936,11.039Zm-16.24.274c0,4.47,2.19,8.029,6.021,8.029s6.021-3.558,6.021-8.12-2.007-8.029-6.021-8.029-6.021,3.649-6.021,8.12Z" transform="translate(-106.253 0.015)" fill="#1268b3"/>
          <path id="Path_9844" data-name="Path 9844" d="M150.7,22.2V.4h4.47l5.656,9.306a69.425,69.425,0,0,1,3.741,7.3h0c-.182-2.828-.274-5.656-.274-9.032V.4h3.649V22.2h-4.105l-5.656-9.579a54.284,54.284,0,0,1-3.923-7.572h-.091c.091,2.737.182,5.656.182,9.215v7.846Z" transform="translate(-108.55 -0.02)" fill="#1268b3"/>
          <path id="Path_9845" data-name="Path 9845" d="M174.421,17.79a11.313,11.313,0,0,0,5.292,1.46c2.555,0,4.014-1.277,4.014-3.011s-1.095-2.646-3.923-3.649-5.839-3.193-5.839-6.3S176.884,0,181.629,0a11.678,11.678,0,0,1,5.2,1.095l-.912,3.193a10.218,10.218,0,0,0-4.379-1c-2.463,0-3.558,1.368-3.558,2.646s1.186,2.372,4.105,3.558,5.656,3.284,5.656,6.478-2.646,6.478-8.3,6.478a12.5,12.5,0,0,1-5.839-1.368Z" transform="translate(-110.558 0.015)" fill="#1268b3"/>
          <path id="Path_9846" data-name="Path 9846" d="M197.014.4V13.081c0,4.288,1.733,6.3,4.379,6.3s4.653-2.007,4.653-6.3V.4h3.923V12.808c0,6.751-3.467,9.762-8.667,9.762S193,19.741,193,12.9V.4Z" transform="translate(-112.259 -0.02)" fill="#1268b3"/>
          <path id="Path_9847" data-name="Path 9847" d="M234.977,13.264c-.091-2.828-.274-6.2-.274-9.123h-.091c-.73,2.646-1.551,5.565-2.555,8.3l-3.193,9.488h-3.1l-2.828-9.306c-.912-2.828-1.642-5.748-2.281-8.485h0c-.091,2.828-.274,6.3-.456,9.306l-.456,8.758H216L217.46.4h5.292l2.828,8.758c.73,2.555,1.46,5.109,2.007,7.572h.091c.547-2.372,1.368-5.018,2.19-7.572L232.878.4h5.109l1.277,21.8h-3.832Z" transform="translate(-114.275 -0.02)" fill="#1268b3"/>
          <path id="Path_9848" data-name="Path 9848" d="M258.134,12.534h-8.211V18.92h9.215V22.2H246V.4h12.681V3.684h-8.758V9.25h8.211Z" transform="translate(-116.905 -0.02)" fill="#1268b3"/>
          <path id="Path_9849" data-name="Path 9849" d="M264.2.656A36.858,36.858,0,0,1,270.221.2c3.193,0,5.292.547,6.751,1.733A5.565,5.565,0,0,1,278.8,6.313a5.656,5.656,0,0,1-3.923,5.474h0c1.551.547,2.463,2.1,3.1,4.2a39.6,39.6,0,0,0,1.642,6.113h-4.105a41.236,41.236,0,0,1-1.46-5.2c-.547-2.828-1.642-3.741-3.923-3.741h-2.007V22.1H264.2Zm3.923,9.671H270.5c2.737,0,4.379-1.46,4.379-3.649s-1.642-3.467-4.288-3.467l-2.463.182Z" transform="translate(-118.5 -0.003)" fill="#1268b3"/>
          <path id="Path_9850" data-name="Path 9850" d="M291.7.656A34.029,34.029,0,0,1,297.813.2c2.919,0,5.018.639,6.386,1.825a5.748,5.748,0,0,1,2.19,4.744,6.569,6.569,0,0,1-1.916,5.018c-1.551,1.551-4.014,2.281-6.842,2.281h-1.916v8.211H291.7Zm4.014,10.127a5.657,5.657,0,0,0,1.916.182c2.919,0,4.744-1.46,4.744-4.014S300.732,3.21,298,3.21a9.4,9.4,0,0,0-2.281.274Z" transform="translate(-120.911 -0.002)" fill="#1268b3"/>
          <path id="Path_9851" data-name="Path 9851" d="M311.5.656A36.857,36.857,0,0,1,317.521.2c3.193,0,5.292.547,6.751,1.733a5.656,5.656,0,0,1,1.916,4.379,5.748,5.748,0,0,1-4.014,5.474h0c1.551.547,2.555,2.1,3.1,4.2A36.857,36.857,0,0,0,327.01,22.1H322.9a22.9,22.9,0,0,1-1.46-5.2c-.639-2.828-1.642-3.741-3.923-3.741h-2.007V22.1H311.5Zm4.014,9.671h2.372c2.646,0,4.288-1.46,4.288-3.649s-1.642-3.467-4.2-3.467a11.952,11.952,0,0,0-2.463.182Z" transform="translate(-122.647 -0.003)" fill="#1268b3"/>
          <path id="Path_9852" data-name="Path 9852" d="M350.936,11.039c0,7.3-4.379,11.5-10.4,11.5S330.5,17.79,330.5,11.4,334.7,0,340.809,0,350.936,4.835,350.936,11.039Zm-16.24.274c0,4.47,2.19,8.029,6.021,8.029s6.021-3.558,6.021-8.12-2.007-8.029-6.021-8.029-6.021,3.649-6.021,8.12Z" transform="translate(-124.313 0.015)" fill="#1268b3"/>
          <path id="Path_9853" data-name="Path 9853" d="M356.7.656A41.42,41.42,0,0,1,363,.2c4.106,0,6.934.821,8.941,2.555a10.039,10.039,0,0,1,3.376,8.029,11.678,11.678,0,0,1-3.376,8.667c-2.19,1.916-5.657,2.919-9.853,2.919A39.87,39.87,0,0,1,356.7,22.1Zm3.923,18.429a8.575,8.575,0,0,0,2.281.182c5.109,0,8.211-2.828,8.211-8.393S368.378,3.3,363.36,3.3a9.579,9.579,0,0,0-2.737.274Z" transform="translate(-126.61 -0.003)" fill="#1268b3"/>
          <path id="Path_9854" data-name="Path 9854" d="M384.823.4V13.081c0,4.288,1.825,6.3,4.47,6.3s4.562-2.007,4.562-6.3V.4h4.014V12.808c0,6.751-3.467,9.762-8.667,9.762s-8.3-2.828-8.3-9.671V.4Z" transform="translate(-128.731 -0.02)" fill="#1268b3"/>
          <path id="Path_9855" data-name="Path 9855" d="M420,21.53a14.324,14.324,0,0,1-5.565.912c-6.934,0-11.13-4.288-11.13-10.948A11.194,11.194,0,0,1,414.887,0a11.4,11.4,0,0,1,5.292,1l-.821,3.1a10.857,10.857,0,0,0-4.288-.821c-4.47,0-7.664,2.828-7.664,8.029s2.828,7.846,7.664,7.846a9.945,9.945,0,0,0,4.288-.821Z" transform="translate(-130.695 0.016)" fill="#1268b3"/>
          <path id="Path_9856" data-name="Path 9856" d="M430,3.684h-6.2V.4h16.513V3.684h-6.3V22.2H430Z" transform="translate(-132.492 -0.02)" fill="#1268b3"/>
          <path id="Path_9857" data-name="Path 9857" d="M444.212,17.79a11.039,11.039,0,0,0,5.292,1.46c2.555,0,3.923-1.277,3.923-3.011s-1.095-2.646-3.832-3.649-5.93-3.193-5.93-6.3S446.676,0,451.42,0a11.952,11.952,0,0,1,5.2,1.095l-1,3.193a9.762,9.762,0,0,0-4.288-1c-2.555,0-3.649,1.368-3.649,2.646s1.277,2.372,4.2,3.558,5.656,3.284,5.656,6.478-2.737,6.478-8.3,6.478a12.955,12.955,0,0,1-5.93-1.369Z" transform="translate(-134.202 0.015)" fill="#1268b3"/>
        </g>
      </g>
    </g>
  </g>
</svg>
